<svg width="450" height="450" viewBox="0 0 450 450" fill="none" xmlns="http://www.w3.org/2000/svg">
<circle cx="225" cy="225" r="225" fill="#104559"/>
<circle cx="225" cy="225" r="190" fill="white"/>
<rect x="193" y="70" width="63" height="309" fill="#104559"/>
<rect x="101" y="92" width="63" height="265" fill="#104559"/>
<rect x="101" y="92" width="63" height="265" fill="#104559"/>
<rect x="285" y="92" width="63" height="265" fill="#104559"/>
<path d="M136.348 247.9C132.298 247.9 128.523 247.25 125.023 245.95C121.573 244.6 118.573 242.7 116.023 240.25C113.473 237.8 111.473 234.925 110.023 231.625C108.623 228.325 107.923 224.7 107.923 220.75C107.923 216.8 108.623 213.175 110.023 209.875C111.473 206.575 113.473 203.7 116.023 201.25C118.623 198.8 121.648 196.925 125.098 195.625C128.548 194.275 132.323 193.6 136.423 193.6C140.973 193.6 145.073 194.4 148.723 196C152.423 197.55 155.523 199.85 158.023 202.9L150.223 210.1C148.423 208.05 146.423 206.525 144.223 205.525C142.023 204.475 139.623 203.95 137.023 203.95C134.573 203.95 132.323 204.35 130.273 205.15C128.223 205.95 126.448 207.1 124.948 208.6C123.448 210.1 122.273 211.875 121.423 213.925C120.623 215.975 120.223 218.25 120.223 220.75C120.223 223.25 120.623 225.525 121.423 227.575C122.273 229.625 123.448 231.4 124.948 232.9C126.448 234.4 128.223 235.55 130.273 236.35C132.323 237.15 134.573 237.55 137.023 237.55C139.623 237.55 142.023 237.05 144.223 236.05C146.423 235 148.423 233.425 150.223 231.325L158.023 238.525C155.523 241.575 152.423 243.9 148.723 245.5C145.073 247.1 140.948 247.9 136.348 247.9Z" fill="white"/>
<path d="M203.149 247V194.5H225.874C230.574 194.5 234.624 195.275 238.024 196.825C241.424 198.325 244.049 200.5 245.899 203.35C247.749 206.2 248.674 209.6 248.674 213.55C248.674 217.45 247.749 220.825 245.899 223.675C244.049 226.475 241.424 228.625 238.024 230.125C234.624 231.625 230.574 232.375 225.874 232.375H209.899L215.299 227.05V247H203.149ZM236.524 247L223.399 227.95H236.374L249.649 247H236.524ZM215.299 228.4L209.899 222.7H225.199C228.949 222.7 231.749 221.9 233.599 220.3C235.449 218.65 236.374 216.4 236.374 213.55C236.374 210.65 235.449 208.4 233.599 206.8C231.749 205.2 228.949 204.4 225.199 204.4H209.899L215.299 198.625V228.4Z" fill="white"/>
<path d="M287.114 247L310.514 194.5H322.514L345.989 247H333.239L314.039 200.65H318.839L299.564 247H287.114ZM298.814 235.75L302.039 226.525H329.039L332.339 235.75H298.814Z" fill="white"/>
</svg>
